<svg width="28" height="24" viewBox="0 0 28 24" fill="none" xmlns="http://www.w3.org/2000/svg">
<path d="M6.75003 0.84668L21.625 14.73L24.275 12.2567L26.0375 13.9017L22.95 16.7833L26.925 20.4933C27.4125 20.9483 27.4125 21.6833 26.925 22.1383L26.0375 22.9667C25.9219 23.0748 25.7845 23.1606 25.6333 23.2192C25.4821 23.2777 25.32 23.3079 25.1563 23.3079C24.9926 23.3079 24.8305 23.2777 24.6792 23.2192C24.528 23.1606 24.3907 23.0748 24.275 22.9667L20.25 19.2683L17.2 22.15L15.4375 20.505L18.0875 18.0317L3.21253 4.14835V0.84668H6.75003ZM18.8625 9.66668L24.7875 4.13668V0.84668H21.25L15.325 6.37668L18.8625 9.66668ZM12.675 15.5L9.13753 12.1517L6.37503 14.73L3.72503 12.2567L1.96253 13.9017L5.05003 16.7833L1.07503 20.505C0.959148 20.6129 0.867214 20.7412 0.804487 20.8823C0.74176 21.0234 0.709473 21.1747 0.709473 21.3275C0.709473 21.4803 0.74176 21.6316 0.804487 21.7727C0.867214 21.9139 0.959148 22.0421 1.07503 22.15L1.96253 22.9783C2.45003 23.4333 3.23753 23.4333 3.72503 22.9783L7.75003 19.2683L10.8 22.15L12.5625 20.505L9.91253 18.0317L12.675 15.5Z" fill="#939393"/>
</svg>
